<svg width="12" height="11" viewBox="0 0 12 11" fill="none" xmlns="http://www.w3.org/2000/svg">
<path fill-rule="evenodd" clip-rule="evenodd" d="M6.30975 10.5194C6.26911 10.5631 6.22083 10.5977 6.16768 10.6213C6.11452 10.645 6.05754 10.6571 6 10.6571C5.94245 10.6571 5.88547 10.645 5.83232 10.6213C5.77917 10.5977 5.73089 10.5631 5.69025 10.5194L0.440247 4.89441C0.358095 4.80639 0.311945 4.68701 0.311945 4.56253C0.311945 4.43805 0.358095 4.31867 0.440247 4.23066C0.522397 4.14264 0.633819 4.09319 0.749997 4.09319C0.866176 4.09319 0.977597 4.14264 1.05975 4.23066L3.52987 6.87769L6 9.52472L10.9402 4.23066C11.0224 4.14264 11.1338 4.09319 11.25 4.09319C11.3662 4.09319 11.4776 4.14264 11.5597 4.23066C11.6419 4.31867 11.688 4.43805 11.688 4.56253C11.688 4.68701 11.6419 4.80639 11.5597 4.89441L6.30975 10.5194Z" fill="white"/>
<path fill-rule="evenodd" clip-rule="evenodd" d="M6.30975 6.76941C6.26911 6.81306 6.22083 6.84769 6.16768 6.87133C6.11452 6.89496 6.05754 6.90712 6 6.90712C5.94245 6.90712 5.88547 6.89496 5.83232 6.87133C5.77917 6.84769 5.73089 6.81306 5.69025 6.76941L0.440247 1.14441C0.358096 1.05639 0.311944 0.937012 0.311944 0.812534C0.311944 0.688057 0.358096 0.568678 0.440247 0.480659C0.522397 0.39264 0.633818 0.343192 0.749997 0.343192C0.866176 0.343192 0.977597 0.39264 1.05975 0.480659L6 5.77472L10.9402 0.480659C11.0224 0.39264 11.1338 0.343192 11.25 0.343192C11.3662 0.343192 11.4776 0.39264 11.5597 0.480659C11.6419 0.568677 11.688 0.688056 11.688 0.812533C11.688 0.937011 11.6419 1.05639 11.5597 1.14441L6.30975 6.76941Z" fill="white"/>
</svg>
