<svg width="19" height="19" viewBox="0 0 19 19" fill="none" xmlns="http://www.w3.org/2000/svg">
<path d="M12.6666 9.49998C12.0368 9.49998 11.4327 9.24975 10.9873 8.80435C10.5419 8.35895 10.2916 7.75486 10.2916 7.12497V3.95831H3.95831C3.53839 3.95831 3.13566 4.12512 2.83873 4.42206C2.54179 4.71899 2.37498 5.12172 2.37498 5.54164V14.25C2.37498 14.6699 2.54179 15.0726 2.83873 15.3696C3.13566 15.6665 3.53839 15.8333 3.95831 15.8333H14.25C14.6699 15.8333 15.0726 15.6665 15.3696 15.3696C15.6665 15.0726 15.8333 14.6699 15.8333 14.25V9.49998H12.6666ZM11.0833 7.12497C11.0833 7.5449 11.2501 7.94763 11.5471 8.24456C11.844 8.54149 12.2467 8.70831 12.6666 8.70831H15.5056L11.0833 4.28606V7.12497ZM3.95831 3.16664H11.0833L16.625 8.70831V14.25C16.625 14.8799 16.3748 15.484 15.9294 15.9294C15.484 16.3748 14.8799 16.625 14.25 16.625H3.95831C3.32842 16.625 2.72433 16.3748 2.27893 15.9294C1.83354 15.484 1.58331 14.8799 1.58331 14.25V5.54164C1.58331 4.91175 1.83354 4.30766 2.27893 3.86226C2.72433 3.41686 3.32842 3.16664 3.95831 3.16664ZM5.54165 14.25V12.6666H3.95831V11.875H5.54165V10.2916H6.33331V11.875H7.91665V12.6666H6.33331V14.25H5.54165Z" fill="white"/>
</svg>
