<svg width="23" height="112" viewBox="0 0 23 112" fill="none" xmlns="http://www.w3.org/2000/svg">
<path fill-rule="evenodd" clip-rule="evenodd" d="M11.5 3.5C6.80558 3.5 3 7.30558 3 12C3 16.6944 6.80558 20.5 11.5 20.5C16.1944 20.5 20 16.6944 20 12C20 7.30558 16.1944 3.5 11.5 3.5ZM0 12C0 5.64873 5.14873 0.5 11.5 0.5C17.8513 0.5 23 5.64873 23 12C23 17.8429 18.6425 22.6681 13 23.4031V24.3542H10V23.4031C4.35747 22.6681 0 17.8429 0 12ZM10 32.9792L10 26.2708H13L13 32.9792H10ZM10 41.6042V34.8958H13V41.6042H10ZM10 50.2292V43.5208H13V50.2292H10ZM10 58.8542L10 52.1458H13L13 58.8542H10ZM10 67.4792V60.7708H13V67.4792H10ZM10 76.1042L10 69.3958H13L13 76.1042H10ZM10 84.7292V78.0208H13V84.7292H10ZM10 88.5969V86.6458H13V88.5969C18.6425 89.3319 23 94.1571 23 100C23 106.351 17.8513 111.5 11.5 111.5C5.14873 111.5 0 106.351 0 100C0 94.1571 4.35747 89.332 10 88.5969ZM3 100C3 95.3056 6.80558 91.5 11.5 91.5C16.1944 91.5 20 95.3056 20 100C20 104.694 16.1944 108.5 11.5 108.5C6.80558 108.5 3 104.694 3 100Z" fill="url(#paint0_linear)"/>
<path d="M13.0757 14.209H10.2505L9.71338 15.8203H8L10.9111 8H12.4043L15.3315 15.8203H13.6182L13.0757 14.209ZM10.6855 12.9038H12.6406L11.6577 9.97656L10.6855 12.9038Z" fill="#585454"/>
<path d="M9 103.82V96H11.7393C12.6882 96 13.4079 96.1826 13.8984 96.5479C14.389 96.9095 14.6343 97.4412 14.6343 98.1431C14.6343 98.5262 14.5358 98.8646 14.3389 99.1582C14.1419 99.4482 13.868 99.6613 13.5171 99.7974C13.9181 99.8976 14.2332 100.1 14.4624 100.404C14.6951 100.709 14.8115 101.081 14.8115 101.521C14.8115 102.273 14.5716 102.843 14.0918 103.229C13.612 103.616 12.9281 103.813 12.04 103.82H9ZM10.6113 100.415V102.526H11.9917C12.3713 102.526 12.6667 102.436 12.8779 102.257C13.0928 102.075 13.2002 101.824 13.2002 101.505C13.2002 100.789 12.8296 100.426 12.0884 100.415H10.6113ZM10.6113 99.2764H11.8037C12.6165 99.262 13.0229 98.938 13.0229 98.3042C13.0229 97.9497 12.9191 97.6955 12.7114 97.5415C12.5073 97.384 12.1833 97.3052 11.7393 97.3052H10.6113V99.2764Z" fill="#585454"/>
<defs>
<linearGradient id="paint0_linear" x1="10.3506" y1="12.4749" x2="10.3506" y2="101.243" gradientUnits="userSpaceOnUse">
<stop stop-color="#2B637E"/>
<stop offset="1" stop-color="#D12437"/>
</linearGradient>
</defs>
</svg>
